<svg width="256" height="256" viewBox="0 0 256 256" fill="none" xmlns="http://www.w3.org/2000/svg">
  <!-- QR Code Background -->
  <rect width="256" height="256" fill="white"/>
  
  <!-- QR Code Pattern (simplified) -->
  <rect x="20" y="20" width="40" height="40" fill="black"/>
  <rect x="196" y="20" width="40" height="40" fill="black"/>
  <rect x="20" y="196" width="40" height="40" fill="black"/>
  
  <!-- QR Code dots pattern -->
  <rect x="30" y="30" width="20" height="20" fill="white"/>
  <rect x="206" y="30" width="20" height="20" fill="white"/>
  <rect x="30" y="206" width="20" height="20" fill="white"/>
  
  <!-- Dollar sign in center -->
  <circle cx="128" cy="128" r="24" fill="white" stroke="black" stroke-width="2"/>
  <text x="128" y="140" text-anchor="middle" font-family="Arial, sans-serif" font-size="24" font-weight="bold" fill="black">$</text>
  
  <!-- Random QR pattern -->
  <rect x="80" y="20" width="8" height="8" fill="black"/>
  <rect x="96" y="20" width="8" height="8" fill="black"/>
  <rect x="104" y="28" width="8" height="8" fill="black"/>
  <rect x="88" y="36" width="8" height="8" fill="black"/>
  <rect x="112" y="36" width="8" height="8" fill="black"/>
  
  <rect x="20" y="80" width="8" height="8" fill="black"/>
  <rect x="36" y="80" width="8" height="8" fill="black"/>
  <rect x="28" y="88" width="8" height="8" fill="black"/>
  <rect x="44" y="96" width="8" height="8" fill="black"/>
  
  <rect x="200" y="80" width="8" height="8" fill="black"/>
  <rect x="216" y="80" width="8" height="8" fill="black"/>
  <rect x="208" y="88" width="8" height="8" fill="black"/>
  <rect x="224" y="96" width="8" height="8" fill="black"/>
</svg>
